<svg width="61" height="14" viewBox="0 0 61 14" fill="none" xmlns="http://www.w3.org/2000/svg">
<path d="M8.70215 7.68457C8.62467 8.75553 8.22819 9.59863 7.5127 10.2139C6.80176 10.8291 5.86296 11.1367 4.69629 11.1367C3.42025 11.1367 2.41536 10.7083 1.68164 9.85156C0.952474 8.99023 0.587891 7.8099 0.587891 6.31055V5.70215C0.587891 4.74512 0.75651 3.90202 1.09375 3.17285C1.43099 2.44368 1.91178 1.88542 2.53613 1.49805C3.16504 1.10612 3.89421 0.910156 4.72363 0.910156C5.87207 0.910156 6.7972 1.21777 7.49902 1.83301C8.20085 2.44824 8.60645 3.31185 8.71582 4.42383H6.66504C6.61491 3.78125 6.4349 3.31641 6.125 3.0293C5.81966 2.73763 5.35254 2.5918 4.72363 2.5918C4.04004 2.5918 3.52734 2.83789 3.18555 3.33008C2.84831 3.81771 2.67513 4.5765 2.66602 5.60645V6.3584C2.66602 7.43392 2.8278 8.22005 3.15137 8.7168C3.47949 9.21354 3.99447 9.46191 4.69629 9.46191C5.32975 9.46191 5.80143 9.31836 6.11133 9.03125C6.42578 8.73958 6.60579 8.29069 6.65137 7.68457H8.70215ZM13.2352 5.45605C12.9663 5.4196 12.7293 5.40137 12.5243 5.40137C11.7769 5.40137 11.287 5.6543 11.0545 6.16016V11H9.07895V3.60352H10.9452L10.9998 4.48535C11.3963 3.80632 11.9455 3.4668 12.6473 3.4668C12.8661 3.4668 13.0711 3.49642 13.2625 3.55566L13.2352 5.45605ZM16.6198 11.1367C15.5352 11.1367 14.6511 10.804 13.9675 10.1387C13.2884 9.47331 12.9489 8.58691 12.9489 7.47949V7.28809C12.9489 6.54525 13.0925 5.88216 13.3796 5.29883C13.6667 4.71094 14.0723 4.25977 14.5964 3.94531C15.125 3.6263 15.7266 3.4668 16.4011 3.4668C17.4128 3.4668 18.208 3.78581 18.7868 4.42383C19.3701 5.06185 19.6618 5.96647 19.6618 7.1377V7.94434H14.9518C15.0156 8.42741 15.207 8.81478 15.5261 9.10645C15.8496 9.39811 16.2575 9.54395 16.7497 9.54395C17.5108 9.54395 18.1055 9.26823 18.5339 8.7168L19.5046 9.80371C19.2083 10.223 18.8073 10.5511 18.3014 10.7881C17.7956 11.0205 17.235 11.1367 16.6198 11.1367ZM16.3942 5.06641C16.0023 5.06641 15.6833 5.19857 15.4372 5.46289C15.1957 5.72721 15.0407 6.10547 14.9723 6.59766H17.7204V6.44043C17.7113 6.00293 17.5928 5.66569 17.3649 5.42871C17.1371 5.18717 16.8135 5.06641 16.3942 5.06641ZM19.6421 7.24707C19.6421 6.09408 19.8996 5.17578 20.4146 4.49219C20.9341 3.80859 21.6428 3.4668 22.5405 3.4668C23.2606 3.4668 23.8553 3.73568 24.3247 4.27344V0.5H26.3071V11H24.523L24.4273 10.2139C23.9351 10.8291 23.3016 11.1367 22.5269 11.1367C21.6564 11.1367 20.9569 10.7949 20.4282 10.1113C19.9042 9.42318 19.6421 8.46842 19.6421 7.24707ZM21.6177 7.39062C21.6177 8.08333 21.7385 8.61426 21.98 8.9834C22.2215 9.35254 22.5724 9.53711 23.0327 9.53711C23.6434 9.53711 24.0741 9.27962 24.3247 8.76465V5.8457C24.0786 5.33073 23.6525 5.07324 23.0464 5.07324C22.0939 5.07324 21.6177 5.8457 21.6177 7.39062ZM29.0834 11H27.1009V3.60352H29.0834V11ZM26.9847 1.68945C26.9847 1.39323 27.0827 1.14941 27.2787 0.958008C27.4792 0.766602 27.7504 0.670898 28.0921 0.670898C28.4294 0.670898 28.6983 0.766602 28.8988 0.958008C29.0993 1.14941 29.1996 1.39323 29.1996 1.68945C29.1996 1.99023 29.097 2.23633 28.892 2.42773C28.6914 2.61914 28.4248 2.71484 28.0921 2.71484C27.7595 2.71484 27.4906 2.61914 27.2855 2.42773C27.085 2.23633 26.9847 1.99023 26.9847 1.68945ZM32.2424 1.78516V3.60352H33.507V5.05273H32.2424V8.74414C32.2424 9.01758 32.2948 9.21354 32.3996 9.33203C32.5044 9.45052 32.7049 9.50977 33.0012 9.50977C33.2199 9.50977 33.4136 9.49382 33.5822 9.46191V10.959C33.1949 11.0775 32.7961 11.1367 32.3859 11.1367C31.0005 11.1367 30.2941 10.4372 30.2668 9.03809V5.05273H29.1867V3.60352H30.2668V1.78516H32.2424ZM41.711 7.68457C41.6335 8.75553 41.237 9.59863 40.5215 10.2139C39.8106 10.8291 38.8718 11.1367 37.7051 11.1367C36.4291 11.1367 35.4242 10.7083 34.6905 9.85156C33.9613 8.99023 33.5967 7.8099 33.5967 6.31055V5.70215C33.5967 4.74512 33.7653 3.90202 34.1026 3.17285C34.4398 2.44368 34.9206 1.88542 35.545 1.49805C36.1739 1.10612 36.903 0.910156 37.7325 0.910156C38.8809 0.910156 39.806 1.21777 40.5079 1.83301C41.2097 2.44824 41.6153 3.31185 41.7246 4.42383H39.6739C39.6237 3.78125 39.4437 3.31641 39.1338 3.0293C38.8285 2.73763 38.3614 2.5918 37.7325 2.5918C37.0489 2.5918 36.5362 2.83789 36.1944 3.33008C35.8571 3.81771 35.684 4.5765 35.6748 5.60645V6.3584C35.6748 7.43392 35.8366 8.22005 36.1602 8.7168C36.4883 9.21354 37.0033 9.46191 37.7051 9.46191C38.3386 9.46191 38.8103 9.31836 39.1202 9.03125C39.4346 8.73958 39.6146 8.29069 39.6602 7.68457H41.711ZM41.7802 7.2334C41.7802 6.49967 41.9214 5.8457 42.204 5.27148C42.4865 4.69727 42.8921 4.25293 43.4208 3.93848C43.954 3.62402 44.5715 3.4668 45.2733 3.4668C46.2714 3.4668 47.0848 3.77214 47.7137 4.38281C48.3472 4.99349 48.7004 5.82292 48.7733 6.87109L48.787 7.37695C48.787 8.51172 48.4703 9.42318 47.8368 10.1113C47.2033 10.7949 46.3534 11.1367 45.287 11.1367C44.2206 11.1367 43.3684 10.7949 42.7304 10.1113C42.0969 9.42773 41.7802 8.49805 41.7802 7.32227V7.2334ZM43.7557 7.37695C43.7557 8.07878 43.8879 8.61654 44.1522 8.99023C44.4165 9.35938 44.7948 9.54395 45.287 9.54395C45.7655 9.54395 46.1392 9.36165 46.4081 8.99707C46.677 8.62793 46.8114 8.04004 46.8114 7.2334C46.8114 6.54525 46.677 6.01204 46.4081 5.63379C46.1392 5.25553 45.7609 5.06641 45.2733 5.06641C44.7902 5.06641 44.4165 5.25553 44.1522 5.63379C43.8879 6.00749 43.7557 6.58854 43.7557 7.37695ZM53.32 5.45605C53.0512 5.4196 52.8142 5.40137 52.6091 5.40137C51.8617 5.40137 51.3718 5.6543 51.1394 6.16016V11H49.1638V3.60352H51.03L51.0847 4.48535C51.4812 3.80632 52.0303 3.4668 52.7321 3.4668C52.9509 3.4668 53.156 3.49642 53.3474 3.55566L53.32 5.45605ZM60.0953 7.37012C60.0953 8.50944 59.8355 9.42318 59.316 10.1113C58.801 10.7949 58.1037 11.1367 57.2242 11.1367C56.4768 11.1367 55.8729 10.877 55.4127 10.3574V13.8438H53.4371V3.60352H55.2691L55.3375 4.32812C55.816 3.75391 56.4403 3.4668 57.2105 3.4668C58.122 3.4668 58.8306 3.80404 59.3365 4.47852C59.8423 5.15299 60.0953 6.08268 60.0953 7.26758V7.37012ZM58.1197 7.22656C58.1197 6.53841 57.9966 6.00749 57.7505 5.63379C57.509 5.26009 57.1558 5.07324 56.691 5.07324C56.0712 5.07324 55.6451 5.31022 55.4127 5.78418V8.8125C55.6542 9.30013 56.0849 9.54395 56.7046 9.54395C57.648 9.54395 58.1197 8.77148 58.1197 7.22656Z" fill="black"/>
</svg>
