<svg class='purple-card' width="375" height="262" viewBox="0 0 375 262" fill="none" xmlns="http://www.w3.org/2000/svg">
<g filter="url(#filter0_d_27_65)">
<g clip-path="url(#clip0_27_65)">
<rect x="22" y="20" width="331" height="206" rx="20" fill="#2E8B72"/>
<path d="M22 20H353V206C353 217.046 344.046 226 333 226H42C30.9543 226 22 217.046 22 206V20Z" fill="#8035DC"/>
<path d="M47.552 40.8C48.3413 40.8 49.0453 40.9707 49.664 41.312C50.2933 41.6427 50.7787 42.1067 51.12 42.704C51.472 43.2907 51.648 43.952 51.648 44.688C51.648 45.424 51.472 46.0907 51.12 46.688C50.7787 47.2747 50.2933 47.7387 49.664 48.08C49.0453 48.4107 48.3413 48.576 47.552 48.576H45.76V52H43.04V40.8H47.552ZM47.376 46.144C47.8133 46.144 48.176 46.0053 48.464 45.728C48.7627 45.4507 48.912 45.104 48.912 44.688C48.912 44.272 48.7627 43.9253 48.464 43.648C48.176 43.3707 47.8133 43.232 47.376 43.232H45.712V46.144H47.376ZM56.7278 52.224C55.9491 52.224 55.2291 52.032 54.5678 51.648C53.9171 51.2533 53.3998 50.7253 53.0158 50.064C52.6318 49.4027 52.4398 48.688 52.4398 47.92C52.4398 47.152 52.6318 46.4373 53.0158 45.776C53.3998 45.1147 53.9171 44.592 54.5678 44.208C55.2291 43.8133 55.9491 43.616 56.7278 43.616C57.4958 43.616 58.2051 43.8133 58.8558 44.208C59.5171 44.592 60.0398 45.1147 60.4238 45.776C60.8184 46.4373 61.0158 47.152 61.0158 47.92C61.0158 48.688 60.8184 49.4027 60.4238 50.064C60.0398 50.7253 59.5171 51.2533 58.8558 51.648C58.2051 52.032 57.4958 52.224 56.7278 52.224ZM56.7278 49.936C57.2291 49.936 57.6451 49.744 57.9758 49.36C58.3171 48.976 58.4878 48.496 58.4878 47.92C58.4878 47.344 58.3171 46.864 57.9758 46.48C57.6451 46.096 57.2291 45.904 56.7278 45.904C56.2264 45.904 55.8051 46.096 55.4638 46.48C55.1331 46.8533 54.9678 47.3333 54.9678 47.92C54.9678 48.5067 55.1331 48.992 55.4638 49.376C55.8051 49.7493 56.2264 49.936 56.7278 49.936ZM70.1823 48.688L71.5263 43.84H74.0543L71.3663 52H69.2063L67.8303 47.712L66.4383 52H64.2783L61.5743 43.84H64.1983L65.5423 48.64L67.0623 43.84H68.6463L70.1823 48.688ZM83.0081 47.776C83.0081 48.1813 82.9761 48.4907 82.9121 48.704H77.0881C77.2055 49.152 77.4188 49.4987 77.7281 49.744C78.0481 49.9787 78.4268 50.096 78.8641 50.096C79.4295 50.096 79.8881 49.904 80.2401 49.52L82.7681 49.632C82.6081 50.048 82.3521 50.4533 82.0001 50.848C81.6481 51.2427 81.2055 51.5733 80.6721 51.84C80.1388 52.096 79.5468 52.224 78.8961 52.224C78.1175 52.224 77.3975 52.032 76.7361 51.648C76.0855 51.2533 75.5681 50.7307 75.1841 50.08C74.8108 49.4187 74.6241 48.6987 74.6241 47.92C74.6241 47.152 74.8161 46.4373 75.2001 45.776C75.5841 45.1147 76.1015 44.592 76.7521 44.208C77.4028 43.8133 78.1121 43.616 78.8801 43.616C79.6588 43.616 80.3628 43.8027 80.9921 44.176C81.6215 44.5493 82.1121 45.056 82.4641 45.696C82.8268 46.3253 83.0081 47.0187 83.0081 47.776ZM78.8481 45.712C78.4215 45.712 78.0481 45.84 77.7281 46.096C77.4081 46.3413 77.1895 46.688 77.0721 47.136H80.6081C80.5121 46.7093 80.3041 46.368 79.9841 46.112C79.6641 45.8453 79.2855 45.712 78.8481 45.712ZM84.4671 52V43.84H86.3391L86.7071 44.64H86.7871C86.9685 44.3947 87.2138 44.1653 87.5231 43.952C87.8431 43.728 88.2325 43.616 88.6911 43.616C88.9898 43.616 89.2405 43.648 89.4431 43.712V46.288C89.2725 46.2347 89.0111 46.208 88.6591 46.208C88.1471 46.208 87.7418 46.3573 87.4431 46.656C87.1445 46.9547 86.9951 47.376 86.9951 47.92V52H84.4671ZM99.2022 52.224C98.2636 52.224 97.4316 52.0267 96.7062 51.632C95.9916 51.2267 95.4369 50.672 95.0422 49.968C94.6582 49.264 94.4662 48.464 94.4662 47.568V40.8H97.1862V47.568C97.1862 48.176 97.3622 48.672 97.7142 49.056C98.0769 49.4293 98.5729 49.616 99.2022 49.616C99.8209 49.616 100.312 49.4293 100.674 49.056C101.037 48.672 101.218 48.176 101.218 47.568V40.8H103.938V47.568C103.938 48.464 103.741 49.264 103.346 49.968C102.962 50.672 102.408 51.2267 101.682 51.632C100.968 52.0267 100.141 52.224 99.2022 52.224ZM105.861 54.88V43.84H107.733L108.101 44.64H108.181C108.394 44.384 108.709 44.1493 109.125 43.936C109.541 43.7227 110.016 43.616 110.549 43.616C111.2 43.616 111.813 43.8027 112.389 44.176C112.965 44.5493 113.424 45.0667 113.765 45.728C114.117 46.3787 114.293 47.1093 114.293 47.92C114.293 48.7307 114.117 49.4667 113.765 50.128C113.424 50.7787 112.965 51.2907 112.389 51.664C111.813 52.0373 111.2 52.224 110.549 52.224C110.048 52.224 109.605 52.128 109.221 51.936C108.848 51.7333 108.597 51.536 108.469 51.344H108.389V54.88H105.861ZM110.085 49.936C110.554 49.936 110.949 49.7493 111.269 49.376C111.6 48.992 111.765 48.5067 111.765 47.92C111.765 47.3333 111.6 46.8533 111.269 46.48C110.949 46.096 110.554 45.904 110.085 45.904C109.616 45.904 109.216 46.096 108.885 46.48C108.554 46.864 108.389 47.344 108.389 47.92C108.389 48.496 108.554 48.976 108.885 49.36C109.216 49.744 109.616 49.936 110.085 49.936Z" fill="white"/>
<path d="M54.6476 160.984C54.6476 162.648 54.1036 164.056 53.0156 165.208C51.9489 166.339 50.4342 167.032 48.4716 167.288V170.36H45.0156V167.224C43.1169 166.883 41.6129 166.072 40.5036 164.792C39.3942 163.512 38.7969 161.955 38.7116 160.12H42.4236C42.5302 161.315 42.9676 162.264 43.7356 162.968C44.5249 163.672 45.5916 164.024 46.9356 164.024C48.2156 164.024 49.1969 163.747 49.8796 163.192C50.5836 162.637 50.9356 161.933 50.9356 161.08C50.9356 160.397 50.7222 159.832 50.2956 159.384C49.8902 158.915 49.3676 158.541 48.7276 158.264C48.0876 157.987 47.2129 157.656 46.1036 157.272C44.6529 156.781 43.4689 156.312 42.5516 155.864C41.6342 155.395 40.8449 154.733 40.1836 153.88C39.5436 153.005 39.2236 151.875 39.2236 150.488C39.2236 148.909 39.7356 147.565 40.7596 146.456C41.7836 145.325 43.2022 144.621 45.0156 144.344V141.24H48.4716V144.408C50.1996 144.749 51.5862 145.549 52.6316 146.808C53.6769 148.067 54.2422 149.56 54.3276 151.288H50.6156C50.5516 150.179 50.1676 149.283 49.4636 148.6C48.7596 147.917 47.8209 147.576 46.6476 147.576C45.4742 147.576 44.5569 147.853 43.8956 148.408C43.2556 148.963 42.9356 149.677 42.9356 150.552C42.9356 151.213 43.1382 151.768 43.5436 152.216C43.9702 152.643 44.4929 152.995 45.1116 153.272C45.7516 153.549 46.6156 153.859 47.7036 154.2C49.1969 154.691 50.3916 155.16 51.2876 155.608C52.2049 156.035 52.9942 156.685 53.6556 157.56C54.3169 158.435 54.6476 159.576 54.6476 160.984ZM56.5098 148.632L62.2378 144.6H65.0538V167H61.3418V149.272L58.2378 151.448L56.5098 148.632ZM77.3203 167.384C75.7417 167.384 74.291 166.947 72.9683 166.072C71.667 165.176 70.6323 163.853 69.8643 162.104C69.0963 160.355 68.7123 158.253 68.7123 155.8C68.7123 153.347 69.0963 151.245 69.8643 149.496C70.6323 147.747 71.667 146.435 72.9683 145.56C74.291 144.664 75.7417 144.216 77.3203 144.216C78.899 144.216 80.339 144.664 81.6403 145.56C82.963 146.435 84.0083 147.747 84.7763 149.496C85.5443 151.245 85.9283 153.347 85.9283 155.8C85.9283 158.253 85.5443 160.355 84.7763 162.104C84.0083 163.853 82.963 165.176 81.6403 166.072C80.339 166.947 78.899 167.384 77.3203 167.384ZM77.3203 163.832C78.2163 163.832 79.027 163.555 79.7523 163C80.499 162.424 81.0963 161.539 81.5443 160.344C81.9923 159.128 82.2163 157.613 82.2163 155.8C82.2163 153.987 81.9923 152.483 81.5443 151.288C81.0963 150.072 80.499 149.187 79.7523 148.632C79.027 148.056 78.2163 147.768 77.3203 147.768C76.4243 147.768 75.603 148.056 74.8563 148.632C74.131 149.187 73.5443 150.072 73.0963 151.288C72.6483 152.483 72.4243 153.987 72.4243 155.8C72.4243 157.613 72.6483 159.128 73.0963 160.344C73.5443 161.539 74.131 162.424 74.8563 163C75.603 163.555 76.4243 163.832 77.3203 163.832ZM90.4821 162.936C91.1434 162.936 91.6874 163.171 92.1141 163.64C92.5407 164.088 92.7541 164.685 92.7541 165.432C92.7541 166.755 92.4021 167.949 91.6981 169.016C91.0154 170.104 90.2794 170.968 89.4901 171.608L88.7861 170.712C89.1487 170.243 89.4687 169.741 89.7461 169.208C90.0234 168.696 90.2154 168.088 90.3221 167.384C89.7247 167.341 89.2341 167.107 88.8501 166.68C88.4661 166.253 88.2741 165.741 88.2741 165.144C88.2741 164.525 88.4874 164.003 88.9141 163.576C89.3407 163.149 89.8634 162.936 90.4821 162.936ZM103.695 167.384C102.117 167.384 100.666 166.947 99.3433 166.072C98.042 165.176 97.0073 163.853 96.2393 162.104C95.4713 160.355 95.0873 158.253 95.0873 155.8C95.0873 153.347 95.4713 151.245 96.2393 149.496C97.0073 147.747 98.042 146.435 99.3433 145.56C100.666 144.664 102.117 144.216 103.695 144.216C105.274 144.216 106.714 144.664 108.015 145.56C109.338 146.435 110.383 147.747 111.151 149.496C111.919 151.245 112.303 153.347 112.303 155.8C112.303 158.253 111.919 160.355 111.151 162.104C110.383 163.853 109.338 165.176 108.015 166.072C106.714 166.947 105.274 167.384 103.695 167.384ZM103.695 163.832C104.591 163.832 105.402 163.555 106.127 163C106.874 162.424 107.471 161.539 107.919 160.344C108.367 159.128 108.591 157.613 108.591 155.8C108.591 153.987 108.367 152.483 107.919 151.288C107.471 150.072 106.874 149.187 106.127 148.632C105.402 148.056 104.591 147.768 103.695 147.768C102.799 147.768 101.978 148.056 101.231 148.632C100.506 149.187 99.9193 150.072 99.4713 151.288C99.0233 152.483 98.7993 153.987 98.7993 155.8C98.7993 157.613 99.0233 159.128 99.4713 160.344C99.9193 161.539 100.506 162.424 101.231 163C101.978 163.555 102.799 163.832 103.695 163.832ZM123.289 167.384C121.71 167.384 120.26 166.947 118.937 166.072C117.636 165.176 116.601 163.853 115.833 162.104C115.065 160.355 114.681 158.253 114.681 155.8C114.681 153.347 115.065 151.245 115.833 149.496C116.601 147.747 117.636 146.435 118.937 145.56C120.26 144.664 121.71 144.216 123.289 144.216C124.868 144.216 126.308 144.664 127.609 145.56C128.932 146.435 129.977 147.747 130.745 149.496C131.513 151.245 131.897 153.347 131.897 155.8C131.897 158.253 131.513 160.355 130.745 162.104C129.977 163.853 128.932 165.176 127.609 166.072C126.308 166.947 124.868 167.384 123.289 167.384ZM123.289 163.832C124.185 163.832 124.996 163.555 125.721 163C126.468 162.424 127.065 161.539 127.513 160.344C127.961 159.128 128.185 157.613 128.185 155.8C128.185 153.987 127.961 152.483 127.513 151.288C127.065 150.072 126.468 149.187 125.721 148.632C124.996 148.056 124.185 147.768 123.289 147.768C122.393 147.768 121.572 148.056 120.825 148.632C120.1 149.187 119.513 150.072 119.065 151.288C118.617 152.483 118.393 153.987 118.393 155.8C118.393 157.613 118.617 159.128 119.065 160.344C119.513 161.539 120.1 162.424 120.825 163C121.572 163.555 122.393 163.832 123.289 163.832ZM142.883 167.384C141.304 167.384 139.853 166.947 138.531 166.072C137.229 165.176 136.195 163.853 135.427 162.104C134.659 160.355 134.275 158.253 134.275 155.8C134.275 153.347 134.659 151.245 135.427 149.496C136.195 147.747 137.229 146.435 138.531 145.56C139.853 144.664 141.304 144.216 142.883 144.216C144.461 144.216 145.901 144.664 147.203 145.56C148.525 146.435 149.571 147.747 150.339 149.496C151.107 151.245 151.491 153.347 151.491 155.8C151.491 158.253 151.107 160.355 150.339 162.104C149.571 163.853 148.525 165.176 147.203 166.072C145.901 166.947 144.461 167.384 142.883 167.384ZM142.883 163.832C143.779 163.832 144.589 163.555 145.315 163C146.061 162.424 146.659 161.539 147.107 160.344C147.555 159.128 147.779 157.613 147.779 155.8C147.779 153.987 147.555 152.483 147.107 151.288C146.659 150.072 146.061 149.187 145.315 148.632C144.589 148.056 143.779 147.768 142.883 147.768C141.987 147.768 141.165 148.056 140.419 148.632C139.693 149.187 139.107 150.072 138.659 151.288C138.211 152.483 137.987 153.987 137.987 155.8C137.987 157.613 138.211 159.128 138.659 160.344C139.107 161.539 139.693 162.424 140.419 163C141.165 163.555 141.987 163.832 142.883 163.832ZM154.381 167.192C154.061 167.192 153.794 167.085 153.581 166.872C153.367 166.648 153.261 166.381 153.261 166.072C153.261 165.763 153.367 165.501 153.581 165.288C153.794 165.075 154.061 164.968 154.381 164.968C154.701 164.968 154.967 165.075 155.181 165.288C155.394 165.501 155.501 165.763 155.501 166.072C155.501 166.381 155.394 166.648 155.181 166.872C154.967 167.085 154.701 167.192 154.381 167.192ZM160.971 167.192C160.182 167.192 159.457 166.973 158.795 166.536C158.145 166.088 157.627 165.427 157.243 164.552C156.859 163.677 156.667 162.627 156.667 161.4C156.667 160.173 156.859 159.123 157.243 158.248C157.627 157.373 158.145 156.717 158.795 156.28C159.457 155.832 160.182 155.608 160.971 155.608C161.761 155.608 162.481 155.832 163.131 156.28C163.793 156.717 164.315 157.373 164.699 158.248C165.083 159.123 165.275 160.173 165.275 161.4C165.275 162.627 165.083 163.677 164.699 164.552C164.315 165.427 163.793 166.088 163.131 166.536C162.481 166.973 161.761 167.192 160.971 167.192ZM160.971 165.416C161.419 165.416 161.825 165.277 162.187 165C162.561 164.712 162.859 164.269 163.083 163.672C163.307 163.064 163.419 162.307 163.419 161.4C163.419 160.493 163.307 159.741 163.083 159.144C162.859 158.536 162.561 158.093 162.187 157.816C161.825 157.528 161.419 157.384 160.971 157.384C160.523 157.384 160.113 157.528 159.739 157.816C159.377 158.093 159.083 158.536 158.859 159.144C158.635 159.741 158.523 160.493 158.523 161.4C158.523 162.307 158.635 163.064 158.859 163.672C159.083 164.269 159.377 164.712 159.739 165C160.113 165.277 160.523 165.416 160.971 165.416ZM170.768 167.192C169.979 167.192 169.253 166.973 168.592 166.536C167.941 166.088 167.424 165.427 167.04 164.552C166.656 163.677 166.464 162.627 166.464 161.4C166.464 160.173 166.656 159.123 167.04 158.248C167.424 157.373 167.941 156.717 168.592 156.28C169.253 155.832 169.979 155.608 170.768 155.608C171.557 155.608 172.277 155.832 172.928 156.28C173.589 156.717 174.112 157.373 174.496 158.248C174.88 159.123 175.072 160.173 175.072 161.4C175.072 162.627 174.88 163.677 174.496 164.552C174.112 165.427 173.589 166.088 172.928 166.536C172.277 166.973 171.557 167.192 170.768 167.192ZM170.768 165.416C171.216 165.416 171.621 165.277 171.984 165C172.357 164.712 172.656 164.269 172.88 163.672C173.104 163.064 173.216 162.307 173.216 161.4C173.216 160.493 173.104 159.741 172.88 159.144C172.656 158.536 172.357 158.093 171.984 157.816C171.621 157.528 171.216 157.384 170.768 157.384C170.32 157.384 169.909 157.528 169.536 157.816C169.173 158.093 168.88 158.536 168.656 159.144C168.432 159.741 168.32 160.493 168.32 161.4C168.32 162.307 168.432 163.064 168.656 163.672C168.88 164.269 169.173 164.712 169.536 165C169.909 165.277 170.32 165.416 170.768 165.416Z" fill="white"/>
<path d="M45.0356 192.087C45.0356 192.815 44.7976 193.431 44.3216 193.935C43.8549 194.429 43.1922 194.733 42.3336 194.845V196.189H40.8216V194.817C39.9909 194.667 39.3329 194.313 38.8476 193.753C38.3622 193.193 38.1009 192.511 38.0636 191.709H39.6876C39.7342 192.231 39.9256 192.647 40.2616 192.955C40.6069 193.263 41.0736 193.417 41.6616 193.417C42.2216 193.417 42.6509 193.295 42.9496 193.053C43.2576 192.81 43.4116 192.502 43.4116 192.129C43.4116 191.83 43.3182 191.583 43.1316 191.387C42.9542 191.181 42.7256 191.018 42.4456 190.897C42.1656 190.775 41.7829 190.631 41.2976 190.463C40.6629 190.248 40.1449 190.043 39.7436 189.847C39.3422 189.641 38.9969 189.352 38.7076 188.979C38.4276 188.596 38.2876 188.101 38.2876 187.495C38.2876 186.804 38.5116 186.216 38.9596 185.731C39.4076 185.236 40.0282 184.928 40.8216 184.807V183.449H42.3336V184.835C43.0896 184.984 43.6962 185.334 44.1536 185.885C44.6109 186.435 44.8582 187.089 44.8956 187.845H43.2716C43.2436 187.359 43.0756 186.967 42.7676 186.669C42.4596 186.37 42.0489 186.221 41.5356 186.221C41.0222 186.221 40.6209 186.342 40.3316 186.585C40.0516 186.827 39.9116 187.14 39.9116 187.523C39.9116 187.812 40.0002 188.055 40.1776 188.251C40.3642 188.437 40.5929 188.591 40.8636 188.713C41.1436 188.834 41.5216 188.969 41.9976 189.119C42.6509 189.333 43.1736 189.539 43.5656 189.735C43.9669 189.921 44.3122 190.206 44.6016 190.589C44.8909 190.971 45.0356 191.471 45.0356 192.087ZM45.8503 186.683L48.3563 184.919H49.5883V194.719H47.9643V186.963L46.6063 187.915L45.8503 186.683ZM54.9549 194.887C54.2642 194.887 53.6296 194.695 53.0509 194.313C52.4816 193.921 52.0289 193.342 51.6929 192.577C51.3569 191.811 51.1889 190.892 51.1889 189.819C51.1889 188.745 51.3569 187.826 51.6929 187.061C52.0289 186.295 52.4816 185.721 53.0509 185.339C53.6296 184.947 54.2642 184.751 54.9549 184.751C55.6456 184.751 56.2756 184.947 56.8449 185.339C57.4236 185.721 57.8809 186.295 58.2169 187.061C58.5529 187.826 58.7209 188.745 58.7209 189.819C58.7209 190.892 58.5529 191.811 58.2169 192.577C57.8809 193.342 57.4236 193.921 56.8449 194.313C56.2756 194.695 55.6456 194.887 54.9549 194.887ZM54.9549 193.333C55.3469 193.333 55.7016 193.211 56.0189 192.969C56.3456 192.717 56.6069 192.329 56.8029 191.807C56.9989 191.275 57.0969 190.612 57.0969 189.819C57.0969 189.025 56.9989 188.367 56.8029 187.845C56.6069 187.313 56.3456 186.925 56.0189 186.683C55.7016 186.431 55.3469 186.305 54.9549 186.305C54.5629 186.305 54.2036 186.431 53.8769 186.683C53.5596 186.925 53.3029 187.313 53.1069 187.845C52.9109 188.367 52.8129 189.025 52.8129 189.819C52.8129 190.612 52.9109 191.275 53.1069 191.807C53.3029 192.329 53.5596 192.717 53.8769 192.969C54.2036 193.211 54.5629 193.333 54.9549 193.333ZM60.7132 192.941C61.0025 192.941 61.2405 193.043 61.4272 193.249C61.6138 193.445 61.7072 193.706 61.7072 194.033C61.7072 194.611 61.5532 195.134 61.2452 195.601C60.9465 196.077 60.6245 196.455 60.2792 196.735L59.9712 196.343C60.1298 196.137 60.2698 195.918 60.3912 195.685C60.5125 195.461 60.5965 195.195 60.6432 194.887C60.3818 194.868 60.1672 194.765 59.9992 194.579C59.8312 194.392 59.7472 194.168 59.7472 193.907C59.7472 193.636 59.8405 193.407 60.0272 193.221C60.2138 193.034 60.4425 192.941 60.7132 192.941ZM66.494 194.887C65.8033 194.887 65.1686 194.695 64.59 194.313C64.0206 193.921 63.568 193.342 63.232 192.577C62.896 191.811 62.728 190.892 62.728 189.819C62.728 188.745 62.896 187.826 63.232 187.061C63.568 186.295 64.0206 185.721 64.59 185.339C65.1686 184.947 65.8033 184.751 66.494 184.751C67.1846 184.751 67.8146 184.947 68.384 185.339C68.9626 185.721 69.42 186.295 69.756 187.061C70.092 187.826 70.26 188.745 70.26 189.819C70.26 190.892 70.092 191.811 69.756 192.577C69.42 193.342 68.9626 193.921 68.384 194.313C67.8146 194.695 67.1846 194.887 66.494 194.887ZM66.494 193.333C66.886 193.333 67.2406 193.211 67.558 192.969C67.8846 192.717 68.146 192.329 68.342 191.807C68.538 191.275 68.636 190.612 68.636 189.819C68.636 189.025 68.538 188.367 68.342 187.845C68.146 187.313 67.8846 186.925 67.558 186.683C67.2406 186.431 66.886 186.305 66.494 186.305C66.102 186.305 65.7426 186.431 65.416 186.683C65.0986 186.925 64.842 187.313 64.646 187.845C64.45 188.367 64.352 189.025 64.352 189.819C64.352 190.612 64.45 191.275 64.646 191.807C64.842 192.329 65.0986 192.717 65.416 192.969C65.7426 193.211 66.102 193.333 66.494 193.333ZM75.0662 194.887C74.3756 194.887 73.7409 194.695 73.1622 194.313C72.5929 193.921 72.1402 193.342 71.8042 192.577C71.4682 191.811 71.3002 190.892 71.3002 189.819C71.3002 188.745 71.4682 187.826 71.8042 187.061C72.1402 186.295 72.5929 185.721 73.1622 185.339C73.7409 184.947 74.3756 184.751 75.0662 184.751C75.7569 184.751 76.3869 184.947 76.9562 185.339C77.5349 185.721 77.9922 186.295 78.3282 187.061C78.6642 187.826 78.8322 188.745 78.8322 189.819C78.8322 190.892 78.6642 191.811 78.3282 192.577C77.9922 193.342 77.5349 193.921 76.9562 194.313C76.3869 194.695 75.7569 194.887 75.0662 194.887ZM75.0662 193.333C75.4582 193.333 75.8129 193.211 76.1302 192.969C76.4569 192.717 76.7182 192.329 76.9142 191.807C77.1102 191.275 77.2082 190.612 77.2082 189.819C77.2082 189.025 77.1102 188.367 76.9142 187.845C76.7182 187.313 76.4569 186.925 76.1302 186.683C75.8129 186.431 75.4582 186.305 75.0662 186.305C74.6742 186.305 74.3149 186.431 73.9882 186.683C73.6709 186.925 73.4142 187.313 73.2182 187.845C73.0222 188.367 72.9242 189.025 72.9242 189.819C72.9242 190.612 73.0222 191.275 73.2182 191.807C73.4142 192.329 73.6709 192.717 73.9882 192.969C74.3149 193.211 74.6742 193.333 75.0662 193.333ZM83.6385 194.887C82.9478 194.887 82.3132 194.695 81.7345 194.313C81.1652 193.921 80.7125 193.342 80.3765 192.577C80.0405 191.811 79.8725 190.892 79.8725 189.819C79.8725 188.745 80.0405 187.826 80.3765 187.061C80.7125 186.295 81.1652 185.721 81.7345 185.339C82.3132 184.947 82.9478 184.751 83.6385 184.751C84.3292 184.751 84.9592 184.947 85.5285 185.339C86.1072 185.721 86.5645 186.295 86.9005 187.061C87.2365 187.826 87.4045 188.745 87.4045 189.819C87.4045 190.892 87.2365 191.811 86.9005 192.577C86.5645 193.342 86.1072 193.921 85.5285 194.313C84.9592 194.695 84.3292 194.887 83.6385 194.887ZM83.6385 193.333C84.0305 193.333 84.3852 193.211 84.7025 192.969C85.0292 192.717 85.2905 192.329 85.4865 191.807C85.6825 191.275 85.7805 190.612 85.7805 189.819C85.7805 189.025 85.6825 188.367 85.4865 187.845C85.2905 187.313 85.0292 186.925 84.7025 186.683C84.3852 186.431 84.0305 186.305 83.6385 186.305C83.2465 186.305 82.8872 186.431 82.5605 186.683C82.2432 186.925 81.9865 187.313 81.7905 187.845C81.5945 188.367 81.4965 189.025 81.4965 189.819C81.4965 190.612 81.5945 191.275 81.7905 191.807C81.9865 192.329 82.2432 192.717 82.5605 192.969C82.8872 193.211 83.2465 193.333 83.6385 193.333ZM89.4108 194.887C89.1308 194.887 88.8974 194.793 88.7108 194.607C88.5241 194.411 88.4308 194.177 88.4308 193.907C88.4308 193.636 88.5241 193.407 88.7108 193.221C88.8974 193.034 89.1308 192.941 89.4108 192.941C89.6908 192.941 89.9241 193.034 90.1108 193.221C90.2974 193.407 90.3908 193.636 90.3908 193.907C90.3908 194.177 90.2974 194.411 90.1108 194.607C89.9241 194.793 89.6908 194.887 89.4108 194.887ZM95.1776 194.887C94.4869 194.887 93.8522 194.695 93.2736 194.313C92.7042 193.921 92.2516 193.342 91.9156 192.577C91.5796 191.811 91.4116 190.892 91.4116 189.819C91.4116 188.745 91.5796 187.826 91.9156 187.061C92.2516 186.295 92.7042 185.721 93.2736 185.339C93.8522 184.947 94.4869 184.751 95.1776 184.751C95.8682 184.751 96.4982 184.947 97.0676 185.339C97.6462 185.721 98.1036 186.295 98.4396 187.061C98.7756 187.826 98.9436 188.745 98.9436 189.819C98.9436 190.892 98.7756 191.811 98.4396 192.577C98.1036 193.342 97.6462 193.921 97.0676 194.313C96.4982 194.695 95.8682 194.887 95.1776 194.887ZM95.1776 193.333C95.5696 193.333 95.9242 193.211 96.2416 192.969C96.5682 192.717 96.8296 192.329 97.0256 191.807C97.2216 191.275 97.3196 190.612 97.3196 189.819C97.3196 189.025 97.2216 188.367 97.0256 187.845C96.8296 187.313 96.5682 186.925 96.2416 186.683C95.9242 186.431 95.5696 186.305 95.1776 186.305C94.7856 186.305 94.4262 186.431 94.0996 186.683C93.7822 186.925 93.5256 187.313 93.3296 187.845C93.1336 188.367 93.0356 189.025 93.0356 189.819C93.0356 190.612 93.1336 191.275 93.3296 191.807C93.5256 192.329 93.7822 192.717 94.0996 192.969C94.4262 193.211 94.7856 193.333 95.1776 193.333ZM103.75 194.887C103.059 194.887 102.424 194.695 101.846 194.313C101.276 193.921 100.824 193.342 100.488 192.577C100.152 191.811 99.9838 190.892 99.9838 189.819C99.9838 188.745 100.152 187.826 100.488 187.061C100.824 186.295 101.276 185.721 101.846 185.339C102.424 184.947 103.059 184.751 103.75 184.751C104.44 184.751 105.07 184.947 105.64 185.339C106.218 185.721 106.676 186.295 107.012 187.061C107.348 187.826 107.516 188.745 107.516 189.819C107.516 190.892 107.348 191.811 107.012 192.577C106.676 193.342 106.218 193.921 105.64 194.313C105.07 194.695 104.44 194.887 103.75 194.887ZM103.75 193.333C104.142 193.333 104.496 193.211 104.814 192.969C105.14 192.717 105.402 192.329 105.598 191.807C105.794 191.275 105.892 190.612 105.892 189.819C105.892 189.025 105.794 188.367 105.598 187.845C105.402 187.313 105.14 186.925 104.814 186.683C104.496 186.431 104.142 186.305 103.75 186.305C103.358 186.305 102.998 186.431 102.672 186.683C102.354 186.925 102.098 187.313 101.902 187.845C101.706 188.367 101.608 189.025 101.608 189.819C101.608 190.612 101.706 191.275 101.902 191.807C102.098 192.329 102.354 192.717 102.672 192.969C102.998 193.211 103.358 193.333 103.75 193.333ZM119.963 194.719H118.255L117.457 192.521H113.495L112.697 194.719H111.045L114.727 184.919H116.295L119.963 194.719ZM116.925 191.023L115.483 187.005L114.027 191.023H116.925ZM123.215 192.857L125.105 187.635H126.673L123.929 194.719H122.445L119.701 187.635H121.325L123.215 192.857ZM130.119 187.467C130.978 187.467 131.664 187.733 132.177 188.265C132.691 188.787 132.947 189.483 132.947 190.351V194.719H131.799L131.519 193.921H131.449C131.253 194.173 130.983 194.397 130.637 194.593C130.301 194.789 129.881 194.887 129.377 194.887C128.929 194.887 128.523 194.793 128.159 194.607C127.795 194.411 127.511 194.154 127.305 193.837C127.1 193.51 126.997 193.155 126.997 192.773C126.997 192.306 127.133 191.9 127.403 191.555C127.683 191.2 128.071 190.929 128.565 190.743C129.069 190.556 129.643 190.463 130.287 190.463H131.421V190.225C131.421 189.805 131.3 189.473 131.057 189.231C130.824 188.979 130.507 188.853 130.105 188.853C129.751 188.853 129.466 188.946 129.251 189.133C129.037 189.31 128.906 189.529 128.859 189.791H127.319C127.366 189.38 127.501 188.997 127.725 188.643C127.959 188.288 128.281 188.003 128.691 187.789C129.102 187.574 129.578 187.467 130.119 187.467ZM129.699 193.585C130.213 193.585 130.628 193.431 130.945 193.123C131.263 192.815 131.421 192.446 131.421 192.017V191.569H130.301C129.713 191.569 129.27 191.667 128.971 191.863C128.682 192.049 128.537 192.311 128.537 192.647C128.537 192.927 128.635 193.155 128.831 193.333C129.037 193.501 129.326 193.585 129.699 193.585ZM136.205 194.719H134.665V187.635H136.205V194.719ZM135.435 186.641C135.183 186.641 134.968 186.557 134.791 186.389C134.613 186.211 134.525 185.997 134.525 185.745C134.525 185.483 134.613 185.269 134.791 185.101C134.968 184.923 135.183 184.835 135.435 184.835C135.687 184.835 135.897 184.923 136.065 185.101C136.242 185.269 136.331 185.483 136.331 185.745C136.331 185.997 136.242 186.211 136.065 186.389C135.897 186.557 135.687 186.641 135.435 186.641ZM139.597 194.719H138.057V184.919H139.597V194.719ZM144.106 187.467C144.964 187.467 145.65 187.733 146.164 188.265C146.677 188.787 146.934 189.483 146.934 190.351V194.719H145.786L145.506 193.921H145.436C145.24 194.173 144.969 194.397 144.624 194.593C144.288 194.789 143.868 194.887 143.364 194.887C142.916 194.887 142.51 194.793 142.146 194.607C141.782 194.411 141.497 194.154 141.292 193.837C141.086 193.51 140.984 193.155 140.984 192.773C140.984 192.306 141.119 191.9 141.39 191.555C141.67 191.2 142.057 190.929 142.552 190.743C143.056 190.556 143.63 190.463 144.274 190.463H145.408V190.225C145.408 189.805 145.286 189.473 145.044 189.231C144.81 188.979 144.493 188.853 144.092 188.853C143.737 188.853 143.452 188.946 143.238 189.133C143.023 189.31 142.892 189.529 142.846 189.791H141.306C141.352 189.38 141.488 188.997 141.712 188.643C141.945 188.288 142.267 188.003 142.678 187.789C143.088 187.574 143.564 187.467 144.106 187.467ZM143.686 193.585C144.199 193.585 144.614 193.431 144.932 193.123C145.249 192.815 145.408 192.446 145.408 192.017V191.569H144.288C143.7 191.569 143.256 191.667 142.958 191.863C142.668 192.049 142.524 192.311 142.524 192.647C142.524 192.927 142.622 193.155 142.818 193.333C143.023 193.501 143.312 193.585 143.686 193.585ZM152.333 194.887C151.829 194.887 151.386 194.779 151.003 194.565C150.63 194.341 150.368 194.126 150.219 193.921H150.149L149.869 194.719H148.721V184.919H150.261V188.377H150.331C150.396 188.274 150.522 188.153 150.709 188.013C150.896 187.863 151.129 187.737 151.409 187.635C151.698 187.523 152.006 187.467 152.333 187.467C152.912 187.467 153.448 187.63 153.943 187.957C154.447 188.274 154.848 188.717 155.147 189.287C155.446 189.847 155.595 190.477 155.595 191.177C155.595 191.877 155.446 192.511 155.147 193.081C154.848 193.641 154.447 194.084 153.943 194.411C153.448 194.728 152.912 194.887 152.333 194.887ZM152.165 193.459C152.51 193.459 152.828 193.365 153.117 193.179C153.406 192.983 153.635 192.712 153.803 192.367C153.98 192.012 154.069 191.615 154.069 191.177C154.069 190.738 153.98 190.346 153.803 190.001C153.635 189.646 153.406 189.375 153.117 189.189C152.828 188.993 152.51 188.895 152.165 188.895C151.82 188.895 151.502 188.993 151.213 189.189C150.924 189.375 150.69 189.646 150.513 190.001C150.345 190.346 150.261 190.738 150.261 191.177C150.261 191.615 150.345 192.012 150.513 192.367C150.69 192.712 150.924 192.983 151.213 193.179C151.502 193.365 151.82 193.459 152.165 193.459ZM158.587 194.719H157.047V184.919H158.587V194.719ZM166.904 191.023C166.904 191.321 166.876 191.573 166.82 191.779H161.57C161.663 192.311 161.887 192.731 162.242 193.039C162.597 193.347 163.026 193.501 163.53 193.501C163.894 193.501 164.202 193.431 164.454 193.291C164.706 193.151 164.907 192.973 165.056 192.759H166.652C166.512 193.113 166.293 193.454 165.994 193.781C165.705 194.107 165.345 194.373 164.916 194.579C164.496 194.784 164.039 194.887 163.544 194.887C162.9 194.887 162.307 194.723 161.766 194.397C161.234 194.07 160.809 193.627 160.492 193.067C160.184 192.497 160.03 191.867 160.03 191.177C160.03 190.495 160.189 189.875 160.506 189.315C160.823 188.745 161.248 188.297 161.78 187.971C162.321 187.635 162.905 187.467 163.53 187.467C164.155 187.467 164.725 187.625 165.238 187.943C165.751 188.251 166.157 188.675 166.456 189.217C166.755 189.758 166.904 190.36 166.904 191.023ZM163.53 188.853C163.045 188.853 162.62 189.016 162.256 189.343C161.892 189.66 161.663 190.085 161.57 190.617H165.406C165.322 190.094 165.107 189.669 164.762 189.343C164.417 189.016 164.006 188.853 163.53 188.853Z" fill="white"/>
</g>
</g>
<defs>
<filter id="filter0_d_27_65" x="-6" y="0" width="387" height="262" filterUnits="userSpaceOnUse" color-interpolation-filters="sRGB">
<feFlood flood-opacity="0" result="BackgroundImageFix"/>
<feColorMatrix in="SourceAlpha" type="matrix" values="0 0 0 0 0 0 0 0 0 0 0 0 0 0 0 0 0 0 127 0" result="hardAlpha"/>
<feOffset dy="8"/>
<feGaussianBlur stdDeviation="14"/>
<feColorMatrix type="matrix" values="0 0 0 0 0.748638 0 0 0 0 0.747882 0 0 0 0 0.754167 0 0 0 0.6 0"/>
<feBlend mode="normal" in2="BackgroundImageFix" result="effect1_dropShadow_27_65"/>
<feBlend mode="normal" in="SourceGraphic" in2="effect1_dropShadow_27_65" result="shape"/>
</filter>
<clipPath id="clip0_27_65">
<rect x="22" y="20" width="331" height="206" rx="20" fill="white"/>
</clipPath>
</defs>
</svg>
