<svg class='orange-card' width="375" height="197" viewBox="0 0 375 197" fill="none" xmlns="http://www.w3.org/2000/svg">
<g filter="url(#filter0_d_27_70)">
<rect x="22" y="20" width="331" height="141" rx="20" fill="#FD4544"/>
<path d="M48.144 52.224C47.1307 52.224 46.192 51.9627 45.328 51.44C44.464 50.9173 43.7813 50.2133 43.28 49.328C42.7787 48.432 42.528 47.456 42.528 46.4C42.528 45.344 42.7787 44.3733 43.28 43.488C43.7813 42.592 44.464 41.8827 45.328 41.36C46.192 40.8373 47.1307 40.576 48.144 40.576C49.1573 40.576 50.032 40.8 50.768 41.248C51.5147 41.6853 52.096 42.2293 52.512 42.88C52.9387 43.52 53.2267 44.1653 53.376 44.816L50.592 44.944C50.464 44.4747 50.1867 44.0587 49.76 43.696C49.3333 43.3227 48.7947 43.136 48.144 43.136C47.6213 43.136 47.136 43.2747 46.688 43.552C46.2507 43.8293 45.8987 44.2187 45.632 44.72C45.376 45.2213 45.248 45.7813 45.248 46.4C45.248 47.0187 45.376 47.5787 45.632 48.08C45.8987 48.5813 46.2507 48.9707 46.688 49.248C47.136 49.5253 47.6213 49.664 48.144 49.664C48.784 49.664 49.3173 49.488 49.744 49.136C50.1707 48.7733 50.4693 48.352 50.64 47.872L53.424 48C53.2853 48.6293 53.0027 49.2693 52.576 49.92C52.1493 50.56 51.5627 51.104 50.816 51.552C50.0693 52 49.1787 52.224 48.144 52.224ZM54.8234 52V43.84H56.6954L57.0634 44.64H57.1434C57.3247 44.3947 57.57 44.1653 57.8794 43.952C58.1994 43.728 58.5887 43.616 59.0474 43.616C59.346 43.616 59.5967 43.648 59.7994 43.712V46.288C59.6287 46.2347 59.3674 46.208 59.0154 46.208C58.5034 46.208 58.098 46.3573 57.7994 46.656C57.5007 46.9547 57.3514 47.376 57.3514 47.92V52H54.8234ZM68.6894 47.776C68.6894 48.1813 68.6574 48.4907 68.5934 48.704H62.7694C62.8867 49.152 63.1 49.4987 63.4094 49.744C63.7294 49.9787 64.108 50.096 64.5454 50.096C65.1107 50.096 65.5694 49.904 65.9214 49.52L68.4494 49.632C68.2894 50.048 68.0334 50.4533 67.6814 50.848C67.3294 51.2427 66.8867 51.5733 66.3534 51.84C65.82 52.096 65.228 52.224 64.5774 52.224C63.7987 52.224 63.0787 52.032 62.4174 51.648C61.7667 51.2533 61.2494 50.7307 60.8654 50.08C60.492 49.4187 60.3054 48.6987 60.3054 47.92C60.3054 47.152 60.4974 46.4373 60.8814 45.776C61.2654 45.1147 61.7827 44.592 62.4334 44.208C63.084 43.8133 63.7934 43.616 64.5614 43.616C65.34 43.616 66.044 43.8027 66.6734 44.176C67.3027 44.5493 67.7934 45.056 68.1454 45.696C68.508 46.3253 68.6894 47.0187 68.6894 47.776ZM64.5294 45.712C64.1027 45.712 63.7294 45.84 63.4094 46.096C63.0894 46.3413 62.8707 46.688 62.7534 47.136H66.2894C66.1934 46.7093 65.9854 46.368 65.6654 46.112C65.3454 45.8453 64.9667 45.712 64.5294 45.712ZM73.5244 52.224C72.8737 52.224 72.2604 52.0373 71.6844 51.664C71.1084 51.2907 70.6444 50.7787 70.2924 50.128C69.951 49.4667 69.7804 48.7307 69.7804 47.92C69.7804 47.1093 69.951 46.3787 70.2924 45.728C70.6444 45.0667 71.1084 44.5493 71.6844 44.176C72.2604 43.8027 72.8737 43.616 73.5244 43.616C74.0257 43.616 74.463 43.7173 74.8364 43.92C75.2204 44.112 75.4764 44.304 75.6044 44.496H75.6844V40.8H78.2124V52H76.3404L75.9724 51.2H75.8924C75.679 51.456 75.3644 51.6907 74.9484 51.904C74.5324 52.1173 74.0577 52.224 73.5244 52.224ZM73.9884 49.936C74.4577 49.936 74.8577 49.744 75.1884 49.36C75.519 48.976 75.6844 48.496 75.6844 47.92C75.6844 47.344 75.519 46.864 75.1884 46.48C74.8577 46.096 74.4577 45.904 73.9884 45.904C73.519 45.904 73.119 46.096 72.7884 46.48C72.4684 46.8533 72.3084 47.3333 72.3084 47.92C72.3084 48.5067 72.4684 48.992 72.7884 49.376C73.119 49.7493 73.519 49.936 73.9884 49.936ZM82.6514 52H80.1234V43.84H82.6514V52ZM81.3874 42.912C80.9927 42.912 80.6567 42.7787 80.3794 42.512C80.1127 42.2453 79.9794 41.9253 79.9794 41.552C79.9794 41.168 80.1127 40.848 80.3794 40.592C80.6567 40.3253 80.9927 40.192 81.3874 40.192C81.782 40.192 82.1127 40.3253 82.3794 40.592C82.646 40.848 82.7794 41.168 82.7794 41.552C82.7794 41.9253 82.646 42.2453 82.3794 42.512C82.1127 42.7787 81.782 42.912 81.3874 42.912ZM88.0094 52.224C87.124 52.224 86.4147 51.9467 85.8814 51.392C85.348 50.8373 85.0814 50.0747 85.0814 49.104V46.048H83.8334V44H84.4254C84.724 44 84.9534 43.92 85.1134 43.76C85.284 43.5893 85.3694 43.36 85.3694 43.072V41.76H87.6094V43.84H89.2574V46.048H87.6094V48.704C87.6094 49.4507 87.9667 49.824 88.6814 49.824C88.916 49.824 89.108 49.7867 89.2574 49.712V52.016C88.916 52.1547 88.5 52.224 88.0094 52.224ZM98.4211 52.224C97.6531 52.224 96.9385 52.032 96.2771 51.648C95.6265 51.2533 95.1091 50.7253 94.7251 50.064C94.3411 49.4027 94.1491 48.688 94.1491 47.92C94.1491 47.152 94.3411 46.4373 94.7251 45.776C95.1091 45.1147 95.6265 44.592 96.2771 44.208C96.9385 43.8133 97.6531 43.616 98.4211 43.616C99.1891 43.616 99.8611 43.7867 100.437 44.128C101.013 44.4693 101.466 44.896 101.797 45.408C102.138 45.92 102.357 46.4267 102.453 46.928L99.9571 47.056C99.8825 46.8 99.7065 46.544 99.4291 46.288C99.1625 46.032 98.8265 45.904 98.4211 45.904C97.9198 45.904 97.5038 46.096 97.1731 46.48C96.8425 46.8533 96.6771 47.3333 96.6771 47.92C96.6771 48.5067 96.8425 48.992 97.1731 49.376C97.5038 49.7493 97.9198 49.936 98.4211 49.936C98.8265 49.936 99.1625 49.808 99.4291 49.552C99.7065 49.296 99.8825 49.04 99.9571 48.784L102.453 48.912C102.357 49.4133 102.138 49.92 101.797 50.432C101.466 50.944 101.013 51.3707 100.437 51.712C99.8611 52.0533 99.1891 52.224 98.4211 52.224ZM107.228 43.616C108.327 43.616 109.186 43.9413 109.804 44.592C110.434 45.232 110.748 46.08 110.748 47.136V52H108.876L108.508 51.2H108.428C108.151 51.488 107.826 51.7333 107.452 51.936C107.09 52.128 106.631 52.224 106.076 52.224C105.564 52.224 105.095 52.1173 104.668 51.904C104.252 51.68 103.922 51.3813 103.676 51.008C103.442 50.624 103.324 50.2027 103.324 49.744C103.324 48.912 103.676 48.256 104.38 47.776C105.095 47.2853 106.082 47.04 107.34 47.04H108.284V46.96C108.284 46.5547 108.183 46.2453 107.98 46.032C107.788 45.8187 107.527 45.712 107.196 45.712C106.919 45.712 106.69 45.7867 106.508 45.936C106.327 46.0853 106.22 46.2613 106.188 46.464L103.724 46.336C103.767 45.9093 103.916 45.488 104.172 45.072C104.428 44.656 104.812 44.3093 105.324 44.032C105.836 43.7547 106.471 43.616 107.228 43.616ZM106.796 50.272C107.234 50.272 107.591 50.1387 107.868 49.872C108.146 49.5947 108.284 49.2587 108.284 48.864V48.528H107.276C106.764 48.528 106.386 48.6133 106.14 48.784C105.906 48.9547 105.788 49.184 105.788 49.472C105.788 49.7067 105.874 49.8987 106.044 50.048C106.226 50.1973 106.476 50.272 106.796 50.272ZM112.498 52V43.84H114.37L114.738 44.64H114.818C115 44.3947 115.245 44.1653 115.554 43.952C115.874 43.728 116.264 43.616 116.722 43.616C117.021 43.616 117.272 43.648 117.474 43.712V46.288C117.304 46.2347 117.042 46.208 116.69 46.208C116.178 46.208 115.773 46.3573 115.474 46.656C115.176 46.9547 115.026 47.376 115.026 47.92V52H112.498ZM121.724 52.224C121.074 52.224 120.46 52.0373 119.884 51.664C119.308 51.2907 118.844 50.7787 118.492 50.128C118.151 49.4667 117.98 48.7307 117.98 47.92C117.98 47.1093 118.151 46.3787 118.492 45.728C118.844 45.0667 119.308 44.5493 119.884 44.176C120.46 43.8027 121.074 43.616 121.724 43.616C122.226 43.616 122.663 43.7173 123.036 43.92C123.42 44.112 123.676 44.304 123.804 44.496H123.884V40.8H126.412V52H124.54L124.172 51.2H124.092C123.879 51.456 123.564 51.6907 123.148 51.904C122.732 52.1173 122.258 52.224 121.724 52.224ZM122.188 49.936C122.658 49.936 123.058 49.744 123.388 49.36C123.719 48.976 123.884 48.496 123.884 47.92C123.884 47.344 123.719 46.864 123.388 46.48C123.058 46.096 122.658 45.904 122.188 45.904C121.719 45.904 121.319 46.096 120.988 46.48C120.668 46.8533 120.508 47.3333 120.508 47.92C120.508 48.5067 120.668 48.992 120.988 49.376C121.319 49.7493 121.719 49.936 122.188 49.936Z" fill="white"/>
<path d="M55.088 99.7027C55.088 101.367 54.544 102.775 53.456 103.927C52.3893 105.057 50.8747 105.751 48.912 106.007V109.079H45.456V105.943C43.5573 105.601 42.0533 104.791 40.944 103.511C39.8347 102.231 39.2373 100.673 39.152 98.8387H42.864C42.9707 100.033 43.408 100.983 44.176 101.687C44.9653 102.391 46.032 102.743 47.376 102.743C48.656 102.743 49.6373 102.465 50.32 101.911C51.024 101.356 51.376 100.652 51.376 99.7987C51.376 99.1161 51.1627 98.5507 50.736 98.1027C50.3307 97.6334 49.808 97.2601 49.168 96.9827C48.528 96.7054 47.6533 96.3747 46.544 95.9907C45.0933 95.5001 43.9093 95.0307 42.992 94.5827C42.0747 94.1134 41.2853 93.4521 40.624 92.5987C39.984 91.7241 39.664 90.5934 39.664 89.2067C39.664 87.6281 40.176 86.2841 41.2 85.1747C42.224 84.0441 43.6427 83.3401 45.456 83.0627V79.9587H48.912V83.1267C50.64 83.4681 52.0267 84.2681 53.072 85.5267C54.1173 86.7854 54.6827 88.2787 54.768 90.0067H51.056C50.992 88.8974 50.608 88.0014 49.904 87.3187C49.2 86.6361 48.2613 86.2947 47.088 86.2947C45.9147 86.2947 44.9973 86.5721 44.336 87.1267C43.696 87.6814 43.376 88.3961 43.376 89.2708C43.376 89.9321 43.5787 90.4867 43.984 90.9347C44.4107 91.3614 44.9333 91.7134 45.552 91.9907C46.192 92.2681 47.056 92.5774 48.144 92.9187C49.6373 93.4094 50.832 93.8787 51.728 94.3267C52.6453 94.7534 53.4347 95.4041 54.096 96.2787C54.7573 97.1534 55.088 98.2947 55.088 99.7027ZM65.9423 90.4867C67.3929 90.4867 68.6943 90.8281 69.8463 91.5107C71.0196 92.1934 71.9369 93.1321 72.5983 94.3267C73.2809 95.5001 73.6223 96.8227 73.6223 98.2947C73.6223 99.7241 73.2703 101.036 72.5662 102.231C71.8836 103.425 70.9343 104.375 69.7183 105.079C68.5023 105.761 67.1369 106.103 65.6223 106.103C64.1076 106.103 62.7423 105.761 61.5263 105.079C60.3103 104.375 59.3503 103.425 58.6463 102.231C57.9636 101.036 57.6223 99.7241 57.6223 98.2947C57.6223 97.1427 57.8356 96.0761 58.2623 95.0947C58.7103 94.0921 59.2756 93.0787 59.9583 92.0547L65.8142 83.3187H69.7823L64.8542 90.6147C65.2383 90.5294 65.6009 90.4867 65.9423 90.4867ZM65.6223 102.679C66.8383 102.679 67.8516 102.273 68.6623 101.463C69.4943 100.631 69.9103 99.5641 69.9103 98.2627C69.9103 96.9614 69.4943 95.9054 68.6623 95.0947C67.8516 94.2627 66.8383 93.8467 65.6223 93.8467C64.3849 93.8467 63.3609 94.2627 62.5503 95.0947C61.7396 95.9054 61.3343 96.9614 61.3343 98.2627C61.3343 99.5641 61.7396 100.631 62.5503 101.463C63.3609 102.273 64.3849 102.679 65.6223 102.679ZM88.414 93.6547C89.374 94.1667 90.206 94.8921 90.91 95.8307C91.6353 96.7694 91.998 97.9214 91.998 99.2867C91.998 100.503 91.6673 101.633 91.006 102.679C90.3447 103.724 89.406 104.556 88.19 105.175C86.974 105.793 85.566 106.103 83.966 106.103C82.366 106.103 80.958 105.793 79.742 105.175C78.526 104.556 77.5873 103.724 76.926 102.679C76.2647 101.633 75.934 100.503 75.934 99.2867C75.934 97.9214 76.2967 96.7694 77.022 95.8307C77.7473 94.8921 78.59 94.1667 79.55 93.6547C78.8033 93.1641 78.1633 92.5454 77.63 91.7987C77.0967 91.0307 76.83 90.1134 76.83 89.0467C76.83 87.9587 77.1287 86.9454 77.726 86.0067C78.3233 85.0681 79.1553 84.3214 80.222 83.7667C81.31 83.2121 82.558 82.9347 83.966 82.9347C85.374 82.9347 86.6113 83.2121 87.678 83.7667C88.766 84.3214 89.6087 85.0681 90.206 86.0067C90.8033 86.9454 91.102 87.9587 91.102 89.0467C91.102 90.1134 90.8353 91.0307 90.302 91.7987C89.7687 92.5454 89.1393 93.1641 88.414 93.6547ZM83.966 86.2627C82.8993 86.2627 82.046 86.5507 81.406 87.1267C80.766 87.6814 80.446 88.4067 80.446 89.3027C80.446 90.1774 80.766 90.9027 81.406 91.4787C82.0673 92.0547 82.9207 92.3427 83.966 92.3427C85.0113 92.3427 85.854 92.0547 86.494 91.4787C87.1553 90.9027 87.486 90.1774 87.486 89.3027C87.486 88.4067 87.166 87.6814 86.526 87.1267C85.886 86.5507 85.0327 86.2627 83.966 86.2627ZM83.966 102.775C85.3313 102.775 86.4087 102.433 87.198 101.751C87.9873 101.068 88.382 100.204 88.382 99.1587C88.382 98.1134 87.9873 97.2494 87.198 96.5667C86.4087 95.8841 85.3313 95.5427 83.966 95.5427C82.6007 95.5427 81.5233 95.8841 80.734 96.5667C79.9447 97.2494 79.55 98.1134 79.55 99.1587C79.55 100.204 79.9447 101.068 80.734 101.751C81.5233 102.433 82.6007 102.775 83.966 102.775ZM102.98 106.103C101.401 106.103 99.9502 105.665 98.6275 104.791C97.3262 103.895 96.2915 102.572 95.5235 100.823C94.7555 99.0734 94.3715 96.9721 94.3715 94.5187C94.3715 92.0654 94.7555 89.9641 95.5235 88.2147C96.2915 86.4654 97.3262 85.1534 98.6275 84.2787C99.9502 83.3827 101.401 82.9347 102.98 82.9347C104.558 82.9347 105.998 83.3827 107.3 84.2787C108.622 85.1534 109.668 86.4654 110.436 88.2147C111.204 89.9641 111.588 92.0654 111.588 94.5187C111.588 96.9721 111.204 99.0734 110.436 100.823C109.668 102.572 108.622 103.895 107.3 104.791C105.998 105.665 104.558 106.103 102.98 106.103ZM102.98 102.551C103.876 102.551 104.686 102.273 105.412 101.719C106.158 101.143 106.756 100.257 107.204 99.0627C107.652 97.8467 107.876 96.3321 107.876 94.5187C107.876 92.7054 107.652 91.2014 107.204 90.0067C106.756 88.7907 106.158 87.9054 105.412 87.3507C104.686 86.7747 103.876 86.4867 102.98 86.4867C102.084 86.4867 101.262 86.7747 100.516 87.3507C99.7902 87.9054 99.2035 88.7907 98.7555 90.0067C98.3075 91.2014 98.0835 92.7054 98.0835 94.5187C98.0835 96.3321 98.3075 97.8467 98.7555 99.0627C99.2035 100.257 99.7902 101.143 100.516 101.719C101.262 102.273 102.084 102.551 102.98 102.551ZM114.477 105.911C114.157 105.911 113.891 105.804 113.677 105.591C113.464 105.367 113.357 105.1 113.357 104.791C113.357 104.481 113.464 104.22 113.677 104.007C113.891 103.793 114.157 103.687 114.477 103.687C114.797 103.687 115.064 103.793 115.277 104.007C115.491 104.22 115.597 104.481 115.597 104.791C115.597 105.1 115.491 105.367 115.277 105.591C115.064 105.804 114.797 105.911 114.477 105.911ZM121.068 105.911C120.279 105.911 119.553 105.692 118.892 105.255C118.241 104.807 117.724 104.145 117.34 103.271C116.956 102.396 116.764 101.345 116.764 100.119C116.764 98.8921 116.956 97.8414 117.34 96.9667C117.724 96.0921 118.241 95.4361 118.892 94.9987C119.553 94.5507 120.279 94.3267 121.068 94.3267C121.857 94.3267 122.577 94.5507 123.228 94.9987C123.889 95.4361 124.412 96.0921 124.796 96.9667C125.18 97.8414 125.372 98.8921 125.372 100.119C125.372 101.345 125.18 102.396 124.796 103.271C124.412 104.145 123.889 104.807 123.228 105.255C122.577 105.692 121.857 105.911 121.068 105.911ZM121.068 104.135C121.516 104.135 121.921 103.996 122.284 103.719C122.657 103.431 122.956 102.988 123.18 102.391C123.404 101.783 123.516 101.025 123.516 100.119C123.516 99.2121 123.404 98.4601 123.18 97.8627C122.956 97.2547 122.657 96.8121 122.284 96.5347C121.921 96.2467 121.516 96.1027 121.068 96.1027C120.62 96.1027 120.209 96.2467 119.836 96.5347C119.473 96.8121 119.18 97.2547 118.956 97.8627C118.732 98.4601 118.62 99.2121 118.62 100.119C118.62 101.025 118.732 101.783 118.956 102.391C119.18 102.988 119.473 103.431 119.836 103.719C120.209 103.996 120.62 104.135 121.068 104.135ZM130.865 105.911C130.075 105.911 129.35 105.692 128.689 105.255C128.038 104.807 127.521 104.145 127.137 103.271C126.753 102.396 126.561 101.345 126.561 100.119C126.561 98.8921 126.753 97.8414 127.137 96.9667C127.521 96.0921 128.038 95.4361 128.689 94.9987C129.35 94.5507 130.075 94.3267 130.865 94.3267C131.654 94.3267 132.374 94.5507 133.025 94.9987C133.686 95.4361 134.209 96.0921 134.593 96.9667C134.977 97.8414 135.169 98.8921 135.169 100.119C135.169 101.345 134.977 102.396 134.593 103.271C134.209 104.145 133.686 104.807 133.025 105.255C132.374 105.692 131.654 105.911 130.865 105.911ZM130.865 104.135C131.313 104.135 131.718 103.996 132.081 103.719C132.454 103.431 132.753 102.988 132.977 102.391C133.201 101.783 133.313 101.025 133.313 100.119C133.313 99.2121 133.201 98.4601 132.977 97.8627C132.753 97.2547 132.454 96.8121 132.081 96.5347C131.718 96.2467 131.313 96.1027 130.865 96.1027C130.417 96.1027 130.006 96.2467 129.633 96.5347C129.27 96.8121 128.977 97.2547 128.753 97.8627C128.529 98.4601 128.417 99.2121 128.417 100.119C128.417 101.025 128.529 101.783 128.753 102.391C128.977 102.988 129.27 103.431 129.633 103.719C130.006 103.996 130.417 104.135 130.865 104.135Z" fill="white"/>
<path d="M46.89 130.719H45.182L44.384 128.521H40.422L39.624 130.719H37.972L41.654 120.919H43.222L46.89 130.719ZM43.852 127.023L42.41 123.005L40.954 127.023H43.852ZM50.1419 128.857L52.0319 123.635H53.5999L50.8559 130.719H49.3719L46.6279 123.635H48.2519L50.1419 128.857ZM57.0462 123.467C57.9049 123.467 58.5909 123.733 59.1042 124.265C59.6176 124.787 59.8742 125.483 59.8742 126.351V130.719H58.7262L58.4462 129.921H58.3762C58.1802 130.173 57.9096 130.397 57.5642 130.593C57.2282 130.789 56.8082 130.887 56.3042 130.887C55.8562 130.887 55.4502 130.793 55.0862 130.607C54.7222 130.411 54.4376 130.154 54.2322 129.837C54.0269 129.51 53.9242 129.155 53.9242 128.773C53.9242 128.306 54.0596 127.9 54.3302 127.555C54.6102 127.2 54.9976 126.929 55.4922 126.743C55.9962 126.556 56.5702 126.463 57.2142 126.463H58.3482V126.225C58.3482 125.805 58.2269 125.473 57.9842 125.231C57.7509 124.979 57.4336 124.853 57.0322 124.853C56.6776 124.853 56.3929 124.946 56.1782 125.133C55.9636 125.31 55.8329 125.529 55.7862 125.791H54.2462C54.2929 125.38 54.4282 124.997 54.6522 124.643C54.8856 124.288 55.2076 124.003 55.6182 123.789C56.0289 123.574 56.5049 123.467 57.0462 123.467ZM56.6262 129.585C57.1396 129.585 57.5549 129.431 57.8722 129.123C58.1896 128.815 58.3482 128.446 58.3482 128.017V127.569H57.2282C56.6402 127.569 56.1969 127.667 55.8982 127.863C55.6089 128.049 55.4642 128.311 55.4642 128.647C55.4642 128.927 55.5622 129.155 55.7582 129.333C55.9636 129.501 56.2529 129.585 56.6262 129.585ZM63.1313 130.719H61.5913V123.635H63.1313V130.719ZM62.3613 122.641C62.1093 122.641 61.8946 122.557 61.7173 122.389C61.54 122.211 61.4513 121.997 61.4513 121.745C61.4513 121.483 61.54 121.269 61.7173 121.101C61.8946 120.923 62.1093 120.835 62.3613 120.835C62.6133 120.835 62.8233 120.923 62.9913 121.101C63.1686 121.269 63.2573 121.483 63.2573 121.745C63.2573 121.997 63.1686 122.211 62.9913 122.389C62.8233 122.557 62.6133 122.641 62.3613 122.641ZM66.5236 130.719H64.9836V120.919H66.5236V130.719ZM71.0326 123.467C71.8912 123.467 72.5772 123.733 73.0906 124.265C73.6039 124.787 73.8606 125.483 73.8606 126.351V130.719H72.7126L72.4326 129.921H72.3626C72.1666 130.173 71.8959 130.397 71.5506 130.593C71.2146 130.789 70.7946 130.887 70.2906 130.887C69.8426 130.887 69.4366 130.793 69.0726 130.607C68.7086 130.411 68.4239 130.154 68.2186 129.837C68.0132 129.51 67.9106 129.155 67.9106 128.773C67.9106 128.306 68.0459 127.9 68.3166 127.555C68.5966 127.2 68.9839 126.929 69.4786 126.743C69.9826 126.556 70.5566 126.463 71.2006 126.463H72.3346V126.225C72.3346 125.805 72.2132 125.473 71.9706 125.231C71.7372 124.979 71.4199 124.853 71.0186 124.853C70.6639 124.853 70.3792 124.946 70.1646 125.133C69.9499 125.31 69.8192 125.529 69.7726 125.791H68.2326C68.2792 125.38 68.4146 124.997 68.6386 124.643C68.8719 124.288 69.1939 124.003 69.6046 123.789C70.0152 123.574 70.4912 123.467 71.0326 123.467ZM70.6126 129.585C71.1259 129.585 71.5412 129.431 71.8586 129.123C72.1759 128.815 72.3346 128.446 72.3346 128.017V127.569H71.2146C70.6266 127.569 70.1832 127.667 69.8846 127.863C69.5952 128.049 69.4506 128.311 69.4506 128.647C69.4506 128.927 69.5486 129.155 69.7446 129.333C69.9499 129.501 70.2392 129.585 70.6126 129.585ZM79.2596 130.887C78.7556 130.887 78.3123 130.779 77.9296 130.565C77.5563 130.341 77.295 130.126 77.1456 129.921H77.0756L76.7956 130.719H75.6476V120.919H77.1876V124.377H77.2576C77.323 124.274 77.449 124.153 77.6356 124.013C77.8223 123.863 78.0556 123.737 78.3356 123.635C78.625 123.523 78.933 123.467 79.2596 123.467C79.8383 123.467 80.375 123.63 80.8696 123.957C81.3736 124.274 81.775 124.717 82.0736 125.287C82.3723 125.847 82.5216 126.477 82.5216 127.177C82.5216 127.877 82.3723 128.511 82.0736 129.081C81.775 129.641 81.3736 130.084 80.8696 130.411C80.375 130.728 79.8383 130.887 79.2596 130.887ZM79.0916 129.459C79.437 129.459 79.7543 129.365 80.0436 129.179C80.333 128.983 80.5616 128.712 80.7296 128.367C80.907 128.012 80.9956 127.615 80.9956 127.177C80.9956 126.738 80.907 126.346 80.7296 126.001C80.5616 125.646 80.333 125.375 80.0436 125.189C79.7543 124.993 79.437 124.895 79.0916 124.895C78.7463 124.895 78.429 124.993 78.1396 125.189C77.8503 125.375 77.617 125.646 77.4396 126.001C77.2716 126.346 77.1876 126.738 77.1876 127.177C77.1876 127.615 77.2716 128.012 77.4396 128.367C77.617 128.712 77.8503 128.983 78.1396 129.179C78.429 129.365 78.7463 129.459 79.0916 129.459ZM85.5138 130.719H83.9738V120.919H85.5138V130.719ZM93.8308 127.023C93.8308 127.321 93.8028 127.573 93.7468 127.779H88.4968C88.5901 128.311 88.8141 128.731 89.1688 129.039C89.5235 129.347 89.9528 129.501 90.4568 129.501C90.8208 129.501 91.1288 129.431 91.3808 129.291C91.6328 129.151 91.8335 128.973 91.9828 128.759H93.5788C93.4388 129.113 93.2195 129.454 92.9208 129.781C92.6315 130.107 92.2721 130.373 91.8428 130.579C91.4228 130.784 90.9655 130.887 90.4708 130.887C89.8268 130.887 89.2341 130.723 88.6928 130.397C88.1608 130.07 87.7361 129.627 87.4188 129.067C87.1108 128.497 86.9568 127.867 86.9568 127.177C86.9568 126.495 87.1155 125.875 87.4328 125.315C87.7501 124.745 88.1748 124.297 88.7068 123.971C89.2481 123.635 89.8315 123.467 90.4568 123.467C91.0821 123.467 91.6515 123.625 92.1648 123.943C92.6781 124.251 93.0841 124.675 93.3828 125.217C93.6815 125.758 93.8308 126.36 93.8308 127.023ZM90.4568 124.853C89.9715 124.853 89.5468 125.016 89.1828 125.343C88.8188 125.66 88.5901 126.085 88.4968 126.617H92.3328C92.2488 126.094 92.0341 125.669 91.6888 125.343C91.3435 125.016 90.9328 124.853 90.4568 124.853Z" fill="white"/>
</g>
<defs>
<filter id="filter0_d_27_70" x="-6" y="0" width="387" height="197" filterUnits="userSpaceOnUse" color-interpolation-filters="sRGB">
<feFlood flood-opacity="0" result="BackgroundImageFix"/>
<feColorMatrix in="SourceAlpha" type="matrix" values="0 0 0 0 0 0 0 0 0 0 0 0 0 0 0 0 0 0 127 0" result="hardAlpha"/>
<feOffset dy="8"/>
<feGaussianBlur stdDeviation="14"/>
<feColorMatrix type="matrix" values="0 0 0 0 0.748638 0 0 0 0 0.747882 0 0 0 0 0.754167 0 0 0 0.6 0"/>
<feBlend mode="normal" in2="BackgroundImageFix" result="effect1_dropShadow_27_70"/>
<feBlend mode="normal" in="SourceGraphic" in2="effect1_dropShadow_27_70" result="shape"/>
</filter>
</defs>
</svg>
